<svg width="170" height="200" viewBox="0 0 170 200" fill="none" xmlns="http://www.w3.org/2000/svg">
<path d="M1.05731 190.547C8.84513 190.547 16.6329 190.547 24.4208 190.547C24.8376 190.547 24.8376 189.89 24.4208 189.89C16.6329 189.89 8.84513 189.89 1.05731 189.89C0.640502 189.89 0.640502 190.547 1.05731 190.547Z" fill="#161616"/>
<path d="M25.8248 196.903C42.3437 196.903 58.8407 196.903 75.3597 196.903C75.7765 196.903 75.7765 196.246 75.3597 196.246C58.8407 196.246 42.3437 196.246 25.8248 196.246C25.4079 196.246 25.4079 196.903 25.8248 196.903Z" fill="#161616"/>
<path d="M28.3037 154.648C28.7863 154.736 29.4883 154.867 30.3658 154.977C34.5559 155.59 37.5394 155.568 41.2249 155.612C43.4406 155.634 46.7093 155.7 50.8116 155.853C55.1771 155.547 59.5646 155.24 63.9302 154.911C57.8974 154.297 51.8646 153.662 45.8318 153.048C39.9744 153.574 34.1391 154.1 28.3037 154.648Z" fill="#6B6B6B"/>
<path d="M41.2029 168.258C42.4534 168.521 43.7038 168.784 44.9542 169.047C49.2979 168.784 54.0583 168.127 59.082 166.812C60.0472 166.571 60.9906 166.308 61.89 166.023C55.0016 166.768 48.1133 167.513 41.2029 168.258Z" fill="#6B6B6B"/>
<path d="M28.5889 185.55C28.6108 187.391 28.6327 189.254 28.6547 191.095C38.7898 192.388 48.9469 193.682 59.082 194.975C59.082 193.134 59.082 191.271 59.082 189.43C65.2903 186.668 71.4767 183.907 77.685 181.145C75.9519 180.882 74.2189 180.619 72.4858 180.356C72.2884 180.663 72.0909 180.97 71.9154 181.299C64.3909 183.622 56.8663 185.967 49.3417 188.29C42.4314 187.37 35.4992 186.449 28.5889 185.55Z" fill="#6B6B6B"/>
<path d="M17.313 160.5C24.9034 161.42 32.5157 162.341 40.1061 163.261C46.468 163.108 53.1589 162.691 60.135 161.924C61.9997 161.727 63.8205 161.486 65.6194 161.245C63.7108 160.675 61.8242 160.083 59.9156 159.513C56.1204 159.864 52.3033 160.215 48.5081 160.565C41.2907 160.061 34.0952 159.535 26.8778 159.031C23.6968 159.513 20.494 159.996 17.313 160.5Z" fill="#262626"/>
<path d="M45.8098 173.935C48.1571 174.285 50.5264 174.636 52.8737 174.987C59.3672 173.299 65.8387 171.633 72.3322 169.946C70.1824 169.617 68.0544 169.31 65.9045 168.981C59.1917 170.647 52.5007 172.291 45.8098 173.935Z" fill="#262626"/>
<path d="M18.8047 179.501C28.8082 180.926 38.7898 182.372 48.7933 183.797C51.8865 183.14 55.1113 182.372 58.4678 181.452C63.0746 180.203 67.3524 178.822 71.3231 177.419C69.8314 177.156 68.3396 176.893 66.8479 176.63C62.1752 177.923 57.5025 179.217 52.8079 180.51C44.5155 179.37 36.2231 178.252 27.9307 177.113C24.9034 177.923 21.8541 178.712 18.8047 179.501Z" fill="#262626"/>
<path d="M26.9216 155.283C26.9216 156.599 26.9216 157.935 26.9216 159.25C26.9216 159.667 27.5798 159.667 27.5798 159.25C27.5798 157.935 27.5798 156.599 27.5798 155.283C27.5798 154.867 26.9216 154.867 26.9216 155.283Z" fill="#161616"/>
<path d="M27.3604 155.415C35.1263 155.678 42.9141 155.919 50.6799 156.182C51.0968 156.204 51.0968 155.547 50.6799 155.525C42.9141 155.262 35.1263 155.021 27.3604 154.758C26.9216 154.736 26.9216 155.393 27.3604 155.415Z" fill="#161616"/>
<path d="M27.3604 159.755C34.4242 159.886 41.4881 160.215 48.5301 160.741C48.9469 160.763 48.9469 160.105 48.5301 160.083C41.4881 159.579 34.4242 159.25 27.3604 159.097C26.9216 159.097 26.9216 159.755 27.3604 159.755Z" fill="#161616"/>
<path d="M50.8993 156.27C55.3965 155.875 59.9156 155.612 64.4128 155.459C64.8296 155.437 64.8296 154.779 64.4128 154.801C59.8937 154.933 55.3965 155.218 50.8993 155.612C50.4825 155.634 50.4606 156.292 50.8993 156.27Z" fill="#161616"/>
<path d="M48.6398 160.763C53.9267 160.237 59.2356 159.733 64.5225 159.207C64.9393 159.163 64.9393 158.505 64.5225 158.549C59.2356 159.075 53.9267 159.579 48.6398 160.105C48.2229 160.149 48.2229 160.806 48.6398 160.763Z" fill="#161616"/>
<path d="M50.5703 156.182C50.4167 156.423 50.307 156.664 50.2631 156.949C50.1973 157.431 50.3947 157.804 50.1534 158.286C49.8682 158.9 49.6928 159.382 49.8024 160.061C49.8683 160.478 50.5044 160.302 50.4386 159.886C50.3289 159.163 50.7019 158.834 50.9212 158.242C51.1187 157.629 50.7457 157.103 51.1406 156.511C51.36 156.16 50.7896 155.81 50.5703 156.182Z" fill="#161616"/>
<path d="M27.4481 155.218C33.3712 154.407 39.3163 153.837 45.3052 153.464C45.7221 153.443 45.7221 152.785 45.3052 152.807C39.2724 153.18 33.2615 153.771 27.2945 154.582C26.8558 154.648 27.0313 155.262 27.4481 155.218Z" fill="#161616"/>
<path d="M44.8665 153.486C51.2503 153.53 57.6122 154.1 63.8863 155.196C64.3031 155.262 64.4786 154.626 64.0618 154.56C57.7219 153.443 51.2942 152.851 44.8665 152.807C44.4497 152.829 44.4497 153.486 44.8665 153.486Z" fill="#161616"/>
<path d="M28.6547 157.453C30.5413 157.892 32.5157 157.431 34.4462 157.453C36.596 157.475 38.7459 157.716 40.8958 157.979C41.3126 158.023 41.3126 157.366 40.8958 157.322C38.8995 157.103 36.8812 156.862 34.863 156.818C32.9105 156.774 30.7607 157.278 28.8302 156.84C28.4134 156.708 28.2379 157.344 28.6547 157.453Z" fill="#161616"/>
<path d="M37.3419 158.878C40.6984 158.987 44.0767 159.141 47.4332 159.338C47.85 159.36 47.85 158.703 47.4332 158.681C44.0767 158.483 40.6984 158.33 37.3419 158.22C36.9251 158.198 36.9251 158.856 37.3419 158.878Z" fill="#161616"/>
<path d="M42.8263 157.716C44.7568 157.87 46.7092 158.067 48.6397 158.308C49.0566 158.352 49.0566 157.694 48.6397 157.65C46.7092 157.409 44.7787 157.212 42.8263 157.059C42.3875 157.015 42.4095 157.672 42.8263 157.716Z" fill="#161616"/>
<path d="M52.1936 158.045C53.7293 158.264 55.221 157.892 56.7347 157.672C58.5336 157.388 60.3544 157.168 62.1752 157.059C62.592 157.037 62.592 156.379 62.1752 156.401C60.7054 156.489 59.2356 156.664 57.7877 156.862C56.0327 157.103 54.168 157.672 52.3911 157.431C51.9523 157.344 51.7768 157.979 52.1936 158.045Z" fill="#161616"/>
<path d="M54.9578 159.185C56.3179 159.338 57.5683 158.856 58.8846 158.593C60.4202 158.264 61.9997 158.133 63.5572 158.111C63.9741 158.111 63.9741 157.453 63.5572 157.453C62.1971 157.475 60.8589 157.585 59.5208 157.804C58.029 158.067 56.4934 158.724 54.9578 158.549C54.541 158.483 54.541 159.141 54.9578 159.185Z" fill="#161616"/>
<path d="M63.8424 155.722C63.8644 156.84 63.8863 157.935 63.9302 159.053C63.9302 159.47 64.5883 159.47 64.5883 159.053C64.5664 157.935 64.5444 156.84 64.5006 155.722C64.5006 155.284 63.8424 155.284 63.8424 155.722Z" fill="#161616"/>
<path d="M16.8304 160.653C16.8523 162.122 16.8084 163.59 16.6987 165.058C16.6768 165.475 17.3349 165.475 17.3569 165.058C17.4666 163.59 17.5104 162.122 17.4885 160.653C17.4666 160.215 16.8084 160.215 16.8304 160.653Z" fill="#161616"/>
<path d="M17.1594 165.694C24.8376 166.658 32.5376 167.491 40.2596 168.236C40.6764 168.28 40.6764 167.623 40.2596 167.579C32.5376 166.834 24.8376 166.001 17.1594 165.036C16.7207 164.993 16.7426 165.65 17.1594 165.694Z" fill="#161616"/>
<path d="M40.128 163.546C40.0622 164.949 39.9744 166.33 39.9086 167.732C39.8867 168.149 40.5448 168.149 40.5667 167.732C40.6326 166.33 40.7203 164.949 40.7861 163.546C40.8081 163.13 40.1499 163.13 40.128 163.546Z" fill="#161616"/>
<path d="M40.4571 163.678C48.9249 163.349 57.3928 162.713 65.8168 161.815C66.2336 161.771 66.2336 161.113 65.8168 161.157C57.3928 162.056 48.9249 162.669 40.4571 163.02C40.0403 163.042 40.0403 163.7 40.4571 163.678Z" fill="#161616"/>
<path d="M40.5667 168.412C48.9249 167.425 57.3051 166.571 65.7071 165.804C66.1239 165.76 66.1239 165.102 65.7071 165.146C57.327 165.913 48.9469 166.79 40.5667 167.754C40.1499 167.798 40.1499 168.455 40.5667 168.412Z" fill="#161616"/>
<path d="M65.5316 161.727C65.5316 162.911 65.5536 164.094 65.5536 165.277C65.5536 165.694 66.2117 165.694 66.2117 165.277C66.2117 164.094 66.1898 162.911 66.1898 161.727C66.1898 161.289 65.5316 161.289 65.5316 161.727Z" fill="#161616"/>
<path d="M17.2472 160.609C20.5378 160.171 23.8284 159.776 27.141 159.47C27.5578 159.426 27.5578 158.768 27.141 158.812C23.7846 159.119 20.4281 159.513 17.0717 159.974C16.6549 160.018 16.8304 160.653 17.2472 160.609Z" fill="#161616"/>
<path d="M17.5763 161.048C25.1666 161.595 32.7351 162.384 40.2816 163.415C40.6984 163.48 40.8739 162.845 40.4571 162.779C32.8667 161.749 25.2324 160.938 17.5763 160.39C17.1594 160.368 17.1594 161.026 17.5763 161.048Z" fill="#161616"/>
<path d="M59.8498 159.93C61.8242 160.302 63.7766 160.807 65.6852 161.464C66.08 161.596 66.2555 160.96 65.8607 160.828C63.9521 160.193 62.0216 159.667 60.0253 159.294C59.6085 159.207 59.433 159.842 59.8498 159.93Z" fill="#161616"/>
<path d="M20.823 164.072C24.7717 163.875 28.545 165.256 32.4718 165.321C32.8886 165.321 32.8886 164.664 32.4718 164.664C28.545 164.598 24.7498 163.217 20.823 163.415C20.4062 163.437 20.4062 164.094 20.823 164.072Z" fill="#161616"/>
<path d="M28.3695 163.217C31.2653 164.291 34.4023 163.634 37.3858 164.291C37.8026 164.379 37.9781 163.743 37.5613 163.656C34.5778 162.998 31.4408 163.656 28.545 162.582C28.1501 162.428 27.9747 163.064 28.3695 163.217Z" fill="#161616"/>
<path d="M41.8611 166.088C49.1443 164.445 56.7127 164.269 64.1276 163.831C64.5444 163.809 64.5444 163.152 64.1276 163.173C56.625 163.634 49.0346 163.787 41.6856 165.453C41.2688 165.541 41.4443 166.176 41.8611 166.088Z" fill="#161616"/>
<path d="M54.0364 165.54C56.625 165.606 59.2136 165.365 61.7364 164.817C62.1532 164.73 61.9777 164.094 61.5609 164.182C59.082 164.708 56.5592 164.949 54.0364 164.883C53.6196 164.861 53.6196 165.519 54.0364 165.54Z" fill="#161616"/>
<path d="M21.4811 166.045C21.4811 167.688 21.4811 169.31 21.4811 170.954C21.4811 171.37 22.1393 171.37 22.1393 170.954C22.1393 169.31 22.1393 167.688 22.1393 166.045C22.1393 165.628 21.4811 165.628 21.4811 166.045Z" fill="#161616"/>
<path d="M21.7224 171.37C25.2763 172.422 29.2031 172.444 32.8886 172.795C36.7935 173.168 40.7203 173.562 44.6252 173.935C45.042 173.978 45.042 173.321 44.6252 173.277C40.8519 172.905 37.0787 172.554 33.3054 172.181C29.5541 171.809 25.5176 171.809 21.8979 170.735C21.5031 170.625 21.3276 171.261 21.7224 171.37Z" fill="#161616"/>
<path d="M44.6032 168.85C44.6252 170.362 44.6252 171.853 44.5813 173.365C44.5813 173.781 45.2394 173.781 45.2394 173.365C45.2833 171.853 45.2833 170.362 45.2614 168.85C45.2614 168.412 44.6032 168.412 44.6032 168.85Z" fill="#161616"/>
<path d="M41.0933 168.74C42.2998 168.85 43.5064 169.047 44.691 169.332C45.1078 169.442 45.2833 168.806 44.8665 168.696C43.6161 168.39 42.3656 168.192 41.0933 168.083C40.6545 168.061 40.6545 168.718 41.0933 168.74Z" fill="#161616"/>
<path d="M45.0201 169.201C51.1626 168.697 57.2612 167.776 63.294 166.395C63.7108 166.308 63.5353 165.672 63.1185 165.76C57.1515 167.119 51.1187 168.039 45.0201 168.543C44.6033 168.565 44.6033 169.223 45.0201 169.201Z" fill="#161616"/>
<path d="M45.02 174.022C51.9962 172.685 58.9284 171.042 65.751 169.091C66.1678 168.981 65.9923 168.346 65.5755 168.455C58.731 170.406 51.8207 172.072 44.8445 173.387C44.4497 173.474 44.6252 174.11 45.02 174.022Z" fill="#161616"/>
<path d="M65.4219 165.562C65.4439 166.658 65.4219 167.754 65.3342 168.828C65.2903 169.244 65.9484 169.244 65.9923 168.828C66.0801 167.732 66.102 166.636 66.0801 165.562C66.0801 165.146 65.4219 165.146 65.4219 165.562Z" fill="#161616"/>
<path d="M63.294 166.395C64.0399 166.395 64.7858 166.286 65.5097 166.11C65.9265 166.001 65.751 165.365 65.3342 165.475C64.6541 165.65 63.996 165.738 63.294 165.738C62.8772 165.738 62.8772 166.395 63.294 166.395Z" fill="#161616"/>
<path d="M25.4079 169.88C30.7168 170.516 36.0038 171.129 41.3126 171.677C41.7294 171.721 41.7294 171.064 41.3126 171.02C36.0038 170.472 30.6949 169.88 25.4079 169.223C24.9911 169.179 24.9911 169.836 25.4079 169.88Z" fill="#161616"/>
<path d="M23.3677 168.061C25.6054 168.28 27.843 168.455 30.0806 168.565C30.4974 168.587 30.4974 167.929 30.0806 167.908C27.843 167.798 25.6054 167.623 23.3677 167.403C22.9509 167.382 22.9509 168.039 23.3677 168.061Z" fill="#161616"/>
<path d="M32.8886 169.266C35.7186 169.266 38.5266 169.464 41.3346 169.902C41.7514 169.968 41.9269 169.332 41.5101 169.266C38.6582 168.828 35.7844 168.609 32.8886 168.609C32.4718 168.609 32.4499 169.266 32.8886 169.266Z" fill="#161616"/>
<path d="M46.095 171.392C49.254 170.888 52.3911 170.318 55.5281 169.683C55.9449 169.595 55.7694 168.959 55.3526 169.047C52.2156 169.683 49.0785 170.253 45.9195 170.757C45.5027 170.822 45.6782 171.458 46.095 171.392Z" fill="#161616"/>
<path d="M52.062 171.655C55.8572 170.384 59.7621 169.442 63.7108 168.872C64.1276 168.806 63.9521 168.171 63.5353 168.236C59.5646 168.806 55.6817 169.727 51.8865 171.02C51.4916 171.173 51.6671 171.809 52.062 171.655Z" fill="#161616"/>
<path d="M61.6706 168.28C62.7456 167.951 63.8205 167.754 64.9393 167.666C65.3561 167.645 65.3561 166.987 64.9393 167.009C63.7766 167.097 62.6139 167.294 61.4951 167.645C61.1002 167.776 61.2757 168.412 61.6706 168.28Z" fill="#161616"/>
<path d="M26.4829 172.225C26.4609 173.781 26.4171 175.337 26.3951 176.893C26.3951 177.31 27.0532 177.31 27.0532 176.893C27.0752 175.337 27.1191 173.781 27.141 172.225C27.1629 171.809 26.5048 171.809 26.4829 172.225Z" fill="#161616"/>
<path d="M26.79 177.332C35.3018 178.471 43.8354 179.611 52.3472 180.729C52.764 180.795 52.764 180.137 52.3472 180.071C43.8354 178.932 35.3018 177.792 26.79 176.674C26.3732 176.608 26.3732 177.266 26.79 177.332Z" fill="#161616"/>
<path d="M45.5466 174.154C48.0913 174.548 50.6361 174.877 53.2028 175.118C53.6196 175.162 53.6196 174.504 53.2028 174.461C50.7019 174.22 48.201 173.913 45.7221 173.518C45.3052 173.452 45.1297 174.088 45.5466 174.154Z" fill="#161616"/>
<path d="M53.2905 175.052C59.8279 174.439 65.8168 171.458 72.2445 170.362C72.6613 170.296 72.4858 169.661 72.069 169.727C65.6852 170.801 59.762 173.759 53.2905 174.373C52.8737 174.439 52.8737 175.096 53.2905 175.052Z" fill="#161616"/>
<path d="M65.7071 169.201C67.9228 169.529 70.1604 169.77 72.3981 169.902C72.8149 169.924 72.8149 169.266 72.3981 169.244C70.2043 169.113 68.0325 168.894 65.8826 168.565C65.4658 168.499 65.2903 169.135 65.7071 169.201Z" fill="#161616"/>
<path d="M52.5227 174.987C52.4569 176.696 52.413 178.428 52.3472 180.137C52.3252 180.553 52.9834 180.553 53.0053 180.137C53.0711 178.428 53.115 176.696 53.1808 174.987C53.2028 174.548 52.5446 174.548 52.5227 174.987Z" fill="#161616"/>
<path d="M52.6982 180.751C59.2575 179.173 65.729 177.31 72.1348 175.184C72.5297 175.052 72.3542 174.417 71.9593 174.548C65.5535 176.674 59.082 178.515 52.5227 180.115C52.1059 180.203 52.2814 180.838 52.6982 180.751Z" fill="#161616"/>
<path d="M71.9593 170.055C72.1348 171.655 72.1787 173.255 72.0909 174.855C72.069 175.272 72.7271 175.272 72.7491 174.855C72.8149 173.255 72.771 171.655 72.6174 170.055C72.5736 169.639 71.9154 169.639 71.9593 170.055Z" fill="#161616"/>
<path d="M28.4792 175.491C28.3256 175.513 28.194 175.535 28.0405 175.535C27.6236 175.578 27.6236 176.148 28.0405 176.192C33.6126 176.784 39.1408 177.682 44.691 178.559C45.1078 178.625 45.2833 177.989 44.8665 177.923C39.2724 177.025 33.6784 176.126 28.0405 175.535C28.0405 175.754 28.0405 175.973 28.0405 176.192C28.194 176.17 28.3256 176.148 28.4792 176.148C28.896 176.104 28.896 175.447 28.4792 175.491Z" fill="#161616"/>
<path d="M30.1903 174.526C31.8576 174.943 33.5248 175.337 35.214 175.666C35.6308 175.754 35.8063 175.118 35.3895 175.03C33.7003 174.702 32.0331 174.329 30.3658 173.891C29.9709 173.803 29.7955 174.439 30.1903 174.526Z" fill="#161616"/>
<path d="M37.1445 175.381C41.5539 176.061 45.9414 176.74 50.3509 177.419C50.7677 177.485 50.9432 176.85 50.5264 176.784C46.1169 176.104 41.7294 175.425 37.32 174.746C36.9032 174.702 36.7277 175.337 37.1445 175.381Z" fill="#161616"/>
<path d="M56.1643 176.367C59.8279 176.28 63.1404 174.504 66.7382 173.957C67.155 173.891 66.9795 173.255 66.5627 173.321C63.0308 173.869 59.784 175.622 56.1643 175.71C55.7475 175.732 55.7475 176.389 56.1643 176.367Z" fill="#161616"/>
<path d="M54.9797 178.581C56.5811 178.186 58.1826 177.792 59.784 177.376C60.2008 177.266 60.0253 176.63 59.6085 176.74C58.0071 177.134 56.4056 177.529 54.8042 177.945C54.3874 178.033 54.5629 178.669 54.9797 178.581Z" fill="#161616"/>
<path d="M65.8826 175.644C67.7693 175.14 69.6559 174.636 71.5425 174.11C71.9593 174 71.7838 173.365 71.367 173.474C69.4804 173.978 67.5938 174.483 65.7071 175.009C65.2903 175.118 65.4658 175.754 65.8826 175.644Z" fill="#161616"/>
<path d="M18.0369 179.721C21.525 179.348 24.9692 178.625 28.3037 177.529C28.6986 177.397 28.5231 176.762 28.1282 176.893C24.8376 177.967 21.4811 178.691 18.0369 179.063C17.6201 179.107 17.6201 179.764 18.0369 179.721Z" fill="#161616"/>
<path d="M17.7737 179.655C17.8395 181.145 17.9273 182.614 17.9931 184.104C18.015 184.52 18.6731 184.52 18.6512 184.104C18.5854 182.614 18.4976 181.145 18.4318 179.655C18.4099 179.238 17.7518 179.238 17.7737 179.655Z" fill="#161616"/>
<path d="M18.366 184.542C28.5011 185.879 38.6143 187.216 48.7494 188.531C49.1662 188.597 49.1662 187.917 48.7494 187.874C38.6143 186.537 28.5011 185.2 18.366 183.885C17.9492 183.819 17.9712 184.477 18.366 184.542Z" fill="#161616"/>
<path d="M18.1686 180.006C27.9527 181.386 37.7368 182.636 47.5429 183.775C47.9597 183.819 47.9597 183.162 47.5429 183.118C37.8026 182 28.0624 180.751 18.3441 179.37C17.9492 179.326 17.7518 179.962 18.1686 180.006Z" fill="#161616"/>
<path d="M48.7714 188.663C56.6031 186.405 64.3909 183.994 72.1129 181.408C72.5077 181.277 72.3322 180.641 71.9374 180.773C64.1934 183.337 56.4276 185.77 48.5959 188.027C48.1791 188.137 48.3546 188.772 48.7714 188.663Z" fill="#161616"/>
<path d="M51.3819 183.512C58.3361 181.956 65.1806 179.984 71.8935 177.573C72.2884 177.441 72.1129 176.806 71.718 176.937C65.0051 179.348 58.1606 181.321 51.2064 182.877C50.7896 182.964 50.9651 183.6 51.3819 183.512Z" fill="#161616"/>
<path d="M71.4986 177.375C71.5206 178.625 71.5425 179.852 71.5644 181.101C71.5644 181.518 72.2226 181.518 72.2226 181.101C72.2006 179.852 72.1787 178.625 72.1568 177.375C72.1348 176.959 71.4767 176.959 71.4986 177.375Z" fill="#161616"/>
<path d="M66.5188 177.003C68.208 177.178 69.8752 177.354 71.5644 177.507C71.9812 177.551 71.9812 176.893 71.5644 176.85C69.8752 176.674 68.208 176.499 66.5188 176.345C66.102 176.302 66.102 176.959 66.5188 177.003Z" fill="#161616"/>
<path d="M20.5597 183.293C25.4079 183.578 30.2122 184.17 34.9946 185.024C35.4114 185.09 35.5869 184.455 35.1701 184.389C30.3439 183.512 25.4737 182.942 20.5597 182.636C20.121 182.614 20.1429 183.271 20.5597 183.293Z" fill="#161616"/>
<path d="M33.3054 183.227C37.1884 183.797 41.0713 184.455 44.9323 185.178C45.3491 185.266 45.5246 184.63 45.1078 184.542C41.2468 183.819 37.3639 183.161 33.4809 182.592C33.0641 182.526 32.8886 183.162 33.3054 183.227Z" fill="#161616"/>
<path d="M48.4423 184.805C48.4862 185.77 48.552 186.734 48.5959 187.676C48.6178 188.093 49.2759 188.093 49.254 187.676C49.2101 186.712 49.1443 185.748 49.1004 184.805C49.0785 184.389 48.4204 184.389 48.4423 184.805Z" fill="#161616"/>
<path d="M52.1059 185.002C55.3526 184.279 58.5774 183.468 61.8023 182.592C62.2191 182.482 62.0436 181.846 61.6268 181.956C58.4239 182.833 55.1771 183.644 51.9304 184.367C51.5136 184.455 51.6891 185.09 52.1059 185.002Z" fill="#161616"/>
<path d="M51.9962 186.208C52.8518 186.12 53.6854 185.989 54.4971 185.748C54.9139 185.638 54.7384 185.003 54.3216 185.112C53.5538 185.331 52.786 185.463 51.9962 185.55C51.5794 185.594 51.5794 186.252 51.9962 186.208Z" fill="#161616"/>
<path d="M63.8424 182.723C65.8826 182.066 67.9228 181.408 69.9411 180.773C70.3359 180.641 70.1604 180.006 69.7656 180.137C67.7254 180.795 65.6852 181.452 63.6669 182.088C63.2721 182.219 63.4476 182.855 63.8424 182.723Z" fill="#161616"/>
<path d="M67.7912 180.422C68.6687 180.159 69.5681 179.918 70.4456 179.655C70.8624 179.545 70.6869 178.91 70.2701 179.019C69.3926 179.282 68.4932 179.523 67.6157 179.786C67.2208 179.896 67.3744 180.532 67.7912 180.422Z" fill="#161616"/>
<path d="M28.1282 185.77C28.3476 187.479 28.4353 189.189 28.3695 190.92C28.3476 191.336 29.0057 191.336 29.0276 190.92C29.0934 189.189 29.0057 187.479 28.7863 185.77C28.7424 185.353 28.0843 185.353 28.1282 185.77Z" fill="#161616"/>
<path d="M28.9399 191.38C39.075 192.695 49.1882 193.988 59.3233 195.303C59.7401 195.347 59.7401 194.69 59.3233 194.646C49.1882 193.331 39.075 192.038 28.9399 190.723C28.5231 190.657 28.5231 191.315 28.9399 191.38Z" fill="#161616"/>
<path d="M58.8187 189.737C58.9284 191.446 59.0162 193.177 59.1259 194.887C59.1478 195.303 59.8059 195.303 59.784 194.887C59.6743 193.177 59.5866 191.446 59.4769 189.737C59.4549 189.32 58.7968 189.298 58.8187 189.737Z" fill="#161616"/>
<path d="M59.2356 195.26C65.5755 192.191 71.9374 189.145 78.2773 186.076C78.6503 185.901 78.3212 185.331 77.9483 185.507C71.6083 188.575 65.2464 191.621 58.9065 194.69C58.5116 194.887 58.8626 195.457 59.2356 195.26Z" fill="#161616"/>
<path d="M59.1478 189.649C65.6413 187.326 71.9593 184.564 78.0799 181.364C78.4528 181.167 78.1237 180.597 77.7508 180.795C71.6961 183.951 65.4219 186.69 58.9723 189.013C58.5774 189.167 58.7529 189.802 59.1478 189.649Z" fill="#161616"/>
<path d="M77.4875 181.101C77.5314 182.745 77.5753 184.389 77.6192 186.011C77.6411 186.427 78.2993 186.427 78.2773 186.011C78.2335 184.367 78.1896 182.723 78.1457 181.101C78.1457 180.663 77.4875 180.663 77.4875 181.101Z" fill="#161616"/>
<path d="M72.1567 180.751C73.9775 180.773 75.7984 180.904 77.5973 181.167C78.0141 181.233 78.1896 180.597 77.7728 180.532C75.9081 180.268 74.0434 180.115 72.1567 180.093C71.7399 180.093 71.7399 180.751 72.1567 180.751Z" fill="#161616"/>
<path d="M49.1224 188.728C51.338 189.123 53.5757 189.364 55.8352 189.452C56.252 189.474 56.252 188.816 55.8352 188.794C53.6415 188.706 51.4697 188.487 49.2979 188.093C48.881 188.005 48.7056 188.641 49.1224 188.728Z" fill="#161616"/>
<path d="M61.0783 190.635C63.4914 190.043 65.7949 189.211 68.0325 188.137C68.4054 187.961 68.0764 187.391 67.7034 187.567C65.5316 188.619 63.2721 189.408 60.9247 190C60.486 190.087 60.6615 190.723 61.0783 190.635Z" fill="#161616"/>
<path d="M61.3416 192.345C63.2721 191.621 65.1368 190.767 66.9356 189.78C67.3086 189.583 66.9795 189.013 66.6066 189.211C64.8516 190.175 63.0527 191.008 61.1661 191.709C60.7712 191.862 60.9248 192.498 61.3416 192.345Z" fill="#161616"/>
<path d="M69.2171 186.865C71.6522 186.011 74.0653 185.024 76.4346 183.95C76.8294 183.775 76.4784 183.205 76.1055 183.381C73.8021 184.433 71.4547 185.375 69.0416 186.208C68.6467 186.361 68.8222 186.997 69.2171 186.865Z" fill="#161616"/>
<path d="M70.1604 188.312C72.5516 187.282 74.8331 186.055 77.0269 184.63C77.3779 184.389 77.0488 183.841 76.6978 184.06C74.526 185.485 72.2226 186.712 69.8314 187.742C69.4365 187.917 69.7656 188.465 70.1604 188.312Z" fill="#161616"/>
<path d="M151.132 127.778C155.629 144.347 160.126 160.916 164.601 177.485C165.874 182.219 167.168 186.931 168.44 191.665C168.66 192.476 169.932 192.125 169.713 191.314C165.216 174.745 160.718 158.176 156.243 141.607C154.971 136.873 153.677 132.161 152.404 127.427C152.185 126.616 150.912 126.967 151.132 127.778Z" fill="#161616"/>
<path d="M138.167 128.479C138.364 146.714 138.562 164.971 138.737 183.205C138.781 188.356 138.847 193.528 138.891 198.679C138.891 199.533 140.207 199.533 140.207 198.679C140.009 180.444 139.812 162.187 139.636 143.953C139.593 138.802 139.527 133.63 139.483 128.479C139.483 127.647 138.167 127.647 138.167 128.479Z" fill="#161616"/>
<path d="M119.805 126.134C115.9 143.953 112.127 161.793 108.485 179.677C107.454 184.739 106.445 189.802 105.436 194.843C105.26 195.676 106.533 196.027 106.708 195.194C110.284 177.31 113.97 159.448 117.809 141.608C118.884 136.567 119.98 131.526 121.099 126.485C121.253 125.652 119.98 125.302 119.805 126.134Z" fill="#161616"/>
<path d="M110.679 173.08C120.178 173.167 129.655 173.387 139.132 173.759C139.987 173.803 139.987 172.488 139.132 172.444C129.655 172.072 120.156 171.852 110.679 171.765C109.845 171.765 109.845 173.08 110.679 173.08Z" fill="#161616"/>
<path d="M139.615 173.474C140.492 173.606 141.172 173.255 141.984 172.926C142.971 172.532 143.958 172.116 144.945 171.699C146.7 170.954 148.455 170.209 150.21 169.442C154.006 167.776 157.757 166.045 161.464 164.269C162.232 163.897 161.552 162.779 160.806 163.13C157.406 164.773 153.984 166.351 150.517 167.886C148.784 168.653 147.051 169.398 145.296 170.143C144.397 170.516 143.519 170.888 142.62 171.261C141.918 171.546 140.711 172.313 139.944 172.203C139.132 172.094 138.759 173.365 139.615 173.474Z" fill="#161616"/>
<path d="M133.319 128.852C131.564 144.413 129.809 159.974 128.054 175.556C127.549 179.962 127.066 184.389 126.562 188.794C126.474 189.627 127.79 189.627 127.878 188.794C129.633 173.233 131.388 157.672 133.143 142.09C133.648 137.684 134.13 133.257 134.635 128.852C134.744 128.019 133.428 128.019 133.319 128.852Z" fill="#161616"/>
<path d="M129.699 165.957C140.119 165.716 150.496 165.058 160.894 164.379C161.728 164.335 161.749 162.998 160.894 163.064C150.496 163.743 140.119 164.379 129.699 164.642C128.843 164.664 128.843 165.979 129.699 165.957Z" fill="#161616"/>
<path d="M110.92 173.014C117.48 171.107 123.798 168.521 130.138 165.979C130.905 165.672 130.576 164.401 129.787 164.708C123.447 167.25 117.129 169.836 110.569 171.743C109.758 171.962 110.109 173.233 110.92 173.014Z" fill="#161616"/>
<path d="M143.476 111.034C149.114 111.779 153.786 113.335 157.362 114.869C157.428 118.836 157.472 122.781 157.538 126.748C153.413 128.589 147.095 130.803 139.132 131.438C128.931 132.249 120.748 130.079 116.032 128.436C115.834 123.986 115.659 119.537 115.461 115.088C120.639 112.853 130.84 109.368 143.476 111.034Z" fill="white" stroke="#161616" stroke-width="3" stroke-miterlimit="10"/>
<path d="M117.26 116.118C118.971 118.025 121.428 118.705 123.907 119.011C127.11 119.428 130.401 119.559 133.648 119.669C140.317 119.888 147.073 119.515 153.413 117.236C153.808 117.105 153.633 116.469 153.238 116.601C147.205 118.77 140.799 119.209 134.459 119.033C131.432 118.946 128.404 118.77 125.377 118.507C122.635 118.266 119.673 117.806 117.743 115.658C117.436 115.329 116.975 115.812 117.26 116.118Z" fill="#161616"/>
<path d="M114.014 40.3306C112.522 40.484 111.6 41.6237 109.78 43.9907C104.866 50.3465 101.312 55.9352 101.005 56.4174C100.368 57.4037 98.1966 60.3843 93.831 66.3457C85.7799 77.3697 83.9153 79.408 84.6173 82.2791C85.4289 85.6323 89.0925 88.613 91.7908 88.1308C93.3703 87.8459 94.3136 86.4213 95.7396 84.0324C97.5823 80.9202 99.9516 76.7122 102.474 71.4742C109.056 67.0032 113.377 62.313 116.076 58.9159C121.56 52.0122 121.385 49.0315 121.187 47.8042C120.573 43.903 117.019 40.0457 114.014 40.3306Z" fill="white" stroke="#161616" stroke-width="3" stroke-miterlimit="10"/>
<path opacity="0.09" d="M118.62 43.0921C117.545 43.2236 117.304 46.3357 116.887 48.2644C115.439 54.9271 110.196 55.6065 101.509 65.4909C97.8675 69.6551 95.2789 73.5124 92.8877 77.1287C90.5623 80.6353 88.7415 83.7037 87.4253 86.0268C87.6446 86.4432 88.215 87.3199 89.2899 87.7582C90.7378 88.3281 92.1418 87.6925 92.6025 87.4733C94.3356 86.6624 94.6427 85.4132 97.4946 80.5915C99.3154 77.5012 99.2934 77.83 100.083 76.2739C101.531 73.4028 101.421 72.5481 102.672 71.1016C103.769 69.8085 104.558 69.8742 106.686 68.2305C107.783 67.3977 109.714 65.9073 111.864 63.7814C112.5 63.1677 115.067 60.5816 117.765 56.5927C119.893 53.4587 120.397 51.9683 120.639 51.1355C121.516 48.111 120.968 46.3357 120.792 45.8317C120.397 44.7139 119.454 42.9825 118.62 43.0921Z" fill="#3D3D3D"/>
<path opacity="0.18" d="M102.672 70.7947C102.387 70.6194 101.246 72.4385 98.6573 75.3972C92.1857 82.7393 87.3156 85.0187 88.0176 86.8816C88.4344 87.9555 90.4526 88.3281 91.9005 88.0212C93.9626 87.5829 95.0595 85.5666 97.2094 81.5558C102.474 71.7152 102.847 70.9043 102.672 70.7947Z" fill="#3D3D3D"/>
<path d="M83.6959 167.82C84.3101 174.658 84.9024 181.496 85.5167 188.334C75.9739 193.112 71.4109 196.136 71.8715 197.429C72.42 199.007 80.5807 197.933 96.3099 194.186C96.0028 184.674 95.6957 175.14 95.4105 165.628C91.5056 166.351 87.6007 167.075 83.6959 167.82Z" fill="#161616" stroke="#161616" stroke-width="3" stroke-miterlimit="10"/>
<path d="M115.001 89.5773C111.644 92.0539 106.928 95.5387 101.312 99.7905C83.6301 113.182 81.4144 115.22 79.4619 118.968C77.5314 122.65 76.8733 128.852 75.5351 141.279C74.6138 149.804 74.5479 156.379 74.5918 160.127C74.6357 164.313 74.8551 167.886 75.0744 170.647C76.1055 171.568 80.0104 174.789 85.9335 174.899C92.9316 175.009 97.4068 170.669 98.1966 169.88C97.5165 165.847 96.9681 161.486 96.6171 156.84C95.9809 148.336 96.1783 140.621 96.7706 133.893C101.465 130.189 108.047 124.841 115.637 118.025C131.849 103.473 132.924 100.032 132.309 97.5988C130.905 92.1635 120.507 90.2567 115.001 89.5773Z" fill="white" stroke="#161616" stroke-width="3" stroke-miterlimit="10"/>
<path opacity="0.12" d="M122.306 91.243C119.959 92.032 121.209 97.3358 119.63 102.267C117.831 107.9 113.684 109.412 103.418 117.214C100.083 119.735 95.3227 123.614 89.8822 128.962C89.97 138.802 89.6629 149.256 88.8073 160.281C88.4124 165.278 87.9298 170.165 87.3814 174.877C88.8293 174.68 90.672 174.263 92.7341 173.452C95.0376 172.532 96.8364 171.37 98.0869 170.428C97.3849 166.264 96.8364 161.749 96.4854 156.905C95.8712 148.402 96.0906 140.687 96.6609 133.937C100.566 130.649 103.747 128.063 105.919 126.288C108.858 123.899 110.35 122.737 112.873 120.589C114.321 119.362 115.79 118.069 119.454 114.716C128.887 106.124 131.476 103.407 132.112 99.5932C132.419 97.6427 132.024 96.5907 131.761 96.0427C130.949 94.4428 129.26 93.7196 125.882 92.295C123.863 91.4841 122.854 91.0457 122.306 91.243Z" fill="#3D3D3D"/>
<path opacity="0.15" d="M96.4635 133.783C95.4544 138.145 94.5549 142.769 93.7871 147.657C92.3173 157.037 91.6592 165.76 91.4617 173.65C93.7213 172.532 95.9809 171.392 98.2404 170.275C97.4287 164.883 96.7925 158.922 96.4635 152.478C96.1344 145.706 96.1783 139.46 96.4635 133.783Z" fill="#3D3D3D"/>
<path opacity="0.09" d="M130.313 94.7935C128.756 94.662 127.352 98.2344 126.386 100.316C124.302 104.875 118.642 110.837 107.323 122.737C104.602 125.608 100.939 129.334 96.4635 133.586C97.6481 132.731 99.2496 131.592 101.092 130.211C105.26 127.077 107.739 124.973 115.703 118.113C115.703 118.113 118.577 115.636 130.313 103.341C130.927 102.705 132.419 101.084 132.441 98.8919C132.485 97.0509 131.476 94.9031 130.313 94.7935Z" fill="#3D3D3D"/>
<path d="M121.955 38.0732C121.867 38.0732 121.516 38.0951 121.033 38.1389C120.046 38.2266 118.489 38.4019 116.646 38.8841C115.154 39.2567 113.97 39.695 113.268 39.9799C112.017 42.5442 110.438 46.5111 109.845 51.53C108.99 58.6748 110.701 63.2773 111.864 70.4002C112.653 75.2877 113.312 82.3667 112.412 91.3307C114.299 93.084 119.213 97.1824 126.715 98.2344C137.311 99.7466 145.099 94.0483 146.7 92.821C147.183 89.7965 147.644 86.7282 148.104 83.616C148.104 83.616 148.784 78.9258 149.443 73.7754C151 61.787 152.602 45.6344 152.799 43.6181C147.161 37.9197 142.488 36.6047 139.242 36.4952C135.03 36.3418 125.377 37.8978 121.955 38.0732Z" fill="#666666"/>
<path opacity="0.17" d="M130.247 42.8291C131.41 44.0345 132.968 45.8755 134.372 48.374C141.128 60.3405 136.938 74.3014 135.073 80.5038C133.779 84.8433 131.322 91.2211 126.452 98.081C128.317 98.4098 130.642 98.5851 133.297 98.3221C139.636 97.6865 144.221 94.7497 146.525 93.0183C148.104 82.564 149.574 71.8468 150.89 60.8884C151.57 55.2339 152.185 49.6671 152.777 44.1222C151.79 42.8948 150.166 41.1196 147.731 39.6073C145.801 38.4019 143.015 36.6486 139.549 36.8239C134.108 37.1307 130.752 42.0839 130.247 42.8291Z" fill="#3D3D3D"/>
<path d="M80.471 55.1901C80.6904 55.1901 80.9317 55.1901 81.1511 55.1901C81.2169 54.949 81.2827 54.686 81.3485 54.4449C81.6118 54.9928 82.0505 55.8914 82.599 57.0091C85.0121 61.8966 85.4947 62.7075 85.9335 64.1759C86.2845 65.3813 86.7013 67.1127 86.8329 69.3263C87.2497 69.0414 87.864 68.6469 88.6537 68.2086C92.9096 65.8854 96.4635 65.8635 99.6664 65.2936C102.058 64.8553 105.414 63.891 109.341 61.5459C109.099 61.8747 108.858 62.2253 108.617 62.5541C108.99 62.6856 109.385 62.839 109.758 62.9705C109.977 63.2554 110.262 63.7156 110.503 64.3074C111.776 67.4415 109.889 70.8824 108.068 74.0384C100.632 87.1007 99.8638 87.7802 98.5256 88.4377C97.9772 88.7226 92.4489 91.4183 88.5221 88.9198C87.7104 88.4157 86.2406 87.2103 84.354 78.6847C83.0597 72.8768 82.9061 69.6331 81.6776 62.0061C81.195 59.1131 80.7562 56.7461 80.471 55.1901Z" fill="white" stroke="#191919" stroke-width="2" stroke-miterlimit="10"/>
<path d="M81.7215 56.3955C83.5862 60.3843 85.4289 64.4389 85.9993 68.8222C86.0213 68.9318 86.1748 68.9318 86.1748 68.8222C85.6044 64.3951 83.7617 60.3186 81.8751 56.3078C81.8092 56.2202 81.6776 56.2859 81.7215 56.3955Z" fill="#191919"/>
<path d="M80.9975 55.6942C82.0944 58.0173 82.9938 60.4063 83.7397 62.8609C83.7617 62.9705 83.9372 62.9267 83.8933 62.8171C83.1474 60.3405 82.226 57.9516 81.1292 55.6065C81.1072 55.5188 80.9537 55.5846 80.9975 55.6942Z" fill="#191919"/>
<path d="M84.003 62.7294C84.7269 64.7019 85.2095 66.7402 85.4947 68.8222C85.5167 68.9318 85.6702 68.9318 85.6702 68.8222C85.3851 66.7182 84.9024 64.68 84.1785 62.6856C84.1346 62.576 83.9811 62.6198 84.003 62.7294Z" fill="#191919"/>
<path d="M82.1164 59.5953C83.1255 62.0719 84.003 64.6142 84.7269 67.2004C84.7489 67.31 84.9244 67.2662 84.8805 67.1566C84.1566 64.5704 83.2791 62.0281 82.2699 59.5515C82.2261 59.4638 82.0725 59.5077 82.1164 59.5953Z" fill="#191919"/>
<path d="M87.2059 69.8742C89.948 68.0552 93.0193 66.8717 96.288 66.4114C96.3977 66.3895 96.3538 66.2361 96.2441 66.258C92.9535 66.7182 89.8822 67.9017 87.1181 69.7208C87.0523 69.7866 87.1181 69.94 87.2059 69.8742Z" fill="#191919"/>
<path d="M88.5879 69.5893C91.4398 67.8579 94.6646 67.2004 97.8675 66.4772C101.268 65.7101 104.58 64.68 107.805 63.365C107.893 63.3212 107.849 63.1677 107.761 63.2116C104.427 64.5923 100.983 65.6224 97.4507 66.4114C94.3575 67.1127 91.2424 67.7922 88.5002 69.4578C88.4124 69.5017 88.5002 69.6551 88.5879 69.5893Z" fill="#191919"/>
<path d="M88.0614 70.3783C91.4398 68.7784 94.884 67.7922 98.5037 66.9155C102.058 66.0388 105.502 64.68 108.968 63.4965C109.078 63.4527 109.034 63.2992 108.924 63.3431C105.348 64.5704 101.772 65.995 98.0869 66.8497C94.5988 67.6826 91.2424 68.7127 87.9737 70.2468C87.864 70.2687 87.9517 70.4222 88.0614 70.3783Z" fill="#191919"/>
<path d="M80.3394 55.1462C81.9409 60.209 83.5642 65.2498 85.1657 70.3126C85.9554 70.5756 86.7452 70.8386 87.5349 71.1016C95.0375 68.625 102.518 66.1703 110.021 63.6937C110.284 63.9129 110.547 64.1321 110.811 64.3732C111.666 74.7836 112.544 85.1721 113.399 95.5825C113.092 95.7798 112.807 95.9551 112.5 96.1523C104.887 97.3139 97.2971 98.4755 89.6848 99.6371C88.5879 99.3741 87.513 99.1111 86.4161 98.8481C85.4508 94.5743 84.4637 90.3225 83.4984 86.0487C82.0725 75.9452 80.6465 65.8416 79.2206 55.738C79.5935 55.5188 79.9665 55.3216 80.3394 55.1462Z" fill="white" stroke="#191919" stroke-width="2" stroke-miterlimit="10"/>
<path d="M84.8147 70.4441C85.1657 79.934 85.8457 89.4458 86.3722 98.9358C86.3942 99.2426 86.8768 99.2426 86.8768 98.9358C86.3503 89.4458 85.6702 79.9559 85.3192 70.4441C85.2973 70.1153 84.7928 70.1153 84.8147 70.4441Z" fill="#191919"/>
<path d="M87.0962 71.0358C87.4033 73.7316 87.5349 76.4273 87.5349 79.145C87.5349 79.4518 88.0176 79.4518 88.0395 79.145C88.0395 76.4273 87.9079 73.7316 87.6008 71.0358C87.5349 70.729 87.0523 70.729 87.0962 71.0358Z" fill="#191919"/>
<path opacity="0.16" d="M100.741 66.9812C100.829 69.1729 100.763 74.0822 97.9553 79.3642C94.9718 84.9748 90.6062 87.8678 88.7196 88.9637C88.6318 87.1665 88.5221 85.3693 88.4344 83.5941C87.6885 84.8433 86.9646 86.0926 86.2187 87.3418C86.3723 91.243 86.5478 95.1442 86.7013 99.0673C87.7543 99.2864 88.8073 99.5056 89.8823 99.7467C97.2752 98.5632 104.69 97.3797 112.083 96.1962C112.478 96.0428 112.851 95.8674 113.246 95.714C112.412 85.1721 111.578 74.6521 110.745 64.1102C107.41 65.0526 104.076 66.0169 100.741 66.9812Z" fill="#6C6D6D"/>
<path opacity="0.1" d="M87.2059 71.255C87.0523 71.255 86.8768 75.3096 86.9865 79.7148C87.1181 85.983 87.7104 88.7226 87.5349 94.7058C87.4691 96.6564 87.3594 98.2563 87.2717 99.2864C88.0834 99.396 88.917 99.5056 89.7287 99.6151C89.5751 98.5412 89.3558 96.9851 89.1364 95.1222C87.4033 81.1832 87.4472 71.255 87.2059 71.255Z" fill="#6C6D6D"/>
<path d="M93.107 72.4823C98.3282 71.255 103.462 69.7208 108.507 67.8798C108.902 67.7264 108.727 67.0908 108.332 67.2442C103.286 69.0633 98.1527 70.5975 92.9316 71.8468C92.5367 71.9563 92.7122 72.5919 93.107 72.4823Z" fill="#191919"/>
<path d="M81.2608 73.1398C81.0195 73.2275 81.0415 73.6658 80.844 75.7041C80.7124 77.0848 80.6685 77.1067 80.7124 77.4355C80.8221 78.356 81.1511 78.5313 81.2608 79.5833C81.3266 80.2627 81.195 80.3504 81.3047 80.9202C81.4363 81.6216 81.7434 82.1476 81.9848 82.4763C81.9848 82.6955 82.0286 83.0681 82.2041 83.4407C82.5551 84.1201 83.3668 84.7118 83.8056 84.4927C84.0469 84.3831 84.1127 83.9228 84.2224 83.0242C84.3321 82.1914 84.2663 82.1476 84.354 81.1832C84.4418 80.3942 84.5076 80.2408 84.4418 79.8463C84.3759 79.3642 84.2004 79.2107 84.025 78.7067C83.7836 78.0053 83.8933 77.7423 83.7398 77.0191C83.5204 75.8137 82.95 74.9589 82.6429 74.4987C82.3358 74.0165 81.6776 73.0083 81.2608 73.1398Z" fill="white"/>
<path d="M81.1072 72.9426C79.9226 75.5068 81.1073 78.3779 83.7836 79.3203C84.0907 79.4299 84.2224 78.9478 83.9153 78.8382C81.546 78.0053 80.493 75.463 81.546 73.1837C81.6557 72.8988 81.2389 72.6577 81.1072 72.9426Z" fill="#191919"/>
<path d="M81.195 73.3371C82.7745 74.8055 83.6959 76.7342 83.8275 78.882C83.8494 79.1888 84.3321 79.1888 84.3321 78.882C84.2004 76.6027 83.2352 74.5425 81.546 72.9864C81.3047 72.7673 80.9537 73.1179 81.195 73.3371Z" fill="#191919"/>
<path d="M80.5369 76.0109C79.9665 78.5752 81.4802 81.0079 84.0907 81.5558C84.3979 81.6216 84.5295 81.1394 84.2224 81.0737C81.897 80.5915 80.493 78.4656 81.0195 76.1205C81.0853 75.8137 80.6027 75.6822 80.5369 76.0109Z" fill="#191919"/>
<path d="M81.0195 79.2327C80.5588 81.1832 81.7434 83.0462 83.7178 83.4187C84.0249 83.4845 84.1565 83.0023 83.8494 82.9366C82.1383 82.6297 81.0853 81.0737 81.4802 79.3642C81.5679 79.0573 81.1073 78.9258 81.0195 79.2327Z" fill="#191919"/>
<path d="M81.6557 82.3667C81.5679 83.3092 82.1164 84.2516 82.9939 84.6023C83.3668 84.7557 83.8495 84.7776 84.1346 84.4488C84.4418 84.0982 84.3101 83.5722 84.1346 83.1996C84.025 82.9147 83.5423 83.0462 83.652 83.3311C83.7617 83.5722 83.9811 84.0543 83.6301 84.2077C83.3668 84.3173 82.95 84.0543 82.7526 83.9009C82.2919 83.5283 82.0725 82.9585 82.1383 82.3667C82.1822 82.038 81.6776 82.0599 81.6557 82.3667Z" fill="#191919"/>
<path d="M83.9152 83.3968C84.3979 83.3968 84.5953 82.9147 84.6611 82.4982C84.7489 81.9942 84.6611 81.4682 84.3979 81.0298C84.2443 80.7449 83.8056 81.0079 83.9811 81.2709C84.1346 81.5339 84.2224 81.8188 84.2224 82.1037C84.2224 82.2572 84.1785 82.8927 83.9152 82.8927C83.6081 82.8927 83.6081 83.3968 83.9152 83.3968Z" fill="#191919"/>
<path d="M84.5295 81.3805C84.8366 81.0956 84.8366 80.5477 84.7708 80.1532C84.705 79.6491 84.4856 79.2108 84.1346 78.8382C83.9152 78.5971 83.5642 78.9478 83.7836 79.1888C84.003 79.4299 84.1785 79.7148 84.2443 80.0655C84.2882 80.3066 84.354 80.8326 84.1566 81.0298C83.9372 81.249 84.2882 81.5997 84.5295 81.3805Z" fill="#191919"/>
<path d="M107.366 151.974C108.178 156.883 108.968 161.815 109.78 166.724C100.763 173.124 96.5732 176.893 97.2094 178.077C97.9553 179.458 105.326 177.244 119.322 171.436C118.818 163.415 118.313 155.415 117.787 147.393C114.321 148.928 110.833 150.44 107.366 151.974Z" fill="#161616" stroke="#161616" stroke-width="3" stroke-miterlimit="10"/>
<path d="M146.81 92.6676C147.161 95.5825 147.293 100.251 145.56 105.511C144.814 107.746 143.563 111.406 140.273 114.847C138.167 117.039 134.481 120.896 129.107 120.743C124.763 120.611 121.692 117.959 120.573 116.885C120.244 121.006 120.068 125.477 120.156 130.277C120.288 137.662 121.012 144.347 121.977 150.177C119.344 155.042 114.299 158.045 108.968 157.892C102.123 157.694 98.2404 152.412 97.8017 151.799C96.2222 136.961 96.0906 124.622 96.3757 115.461C96.6171 107.987 97.1436 101.807 101.663 96.7879C106.072 91.8786 111.908 90.7608 113.443 90.4978C124.675 88.5034 133.165 96.4153 134.174 97.4016C135.797 97.5112 138.978 97.4673 142.401 95.8236C144.419 94.8373 145.867 93.61 146.81 92.6676Z" fill="white" stroke="#161616" stroke-width="3" stroke-miterlimit="10"/>
<path d="M120.924 110.508C120.31 113.247 119.981 116.031 119.915 118.836C119.915 119.253 120.573 119.253 120.573 118.836C120.639 116.075 120.946 113.357 121.538 110.683C121.648 110.267 121.012 110.091 120.924 110.508Z" fill="#161616"/>
<path d="M121.077 114.014C121.384 113.335 121.67 112.656 121.977 111.954C122.152 111.56 121.582 111.231 121.406 111.625C121.099 112.305 120.814 112.984 120.507 113.686C120.332 114.058 120.902 114.387 121.077 114.014Z" fill="#161616"/>
<path d="M133.362 97.0728C134.832 98.4755 135.841 100.492 136.938 102.201C137.158 102.552 137.728 102.223 137.509 101.873C136.368 100.119 135.337 98.081 133.823 96.6126C133.516 96.3058 133.055 96.766 133.362 97.0728Z" fill="#161616"/>
<path opacity="0.09" d="M139.812 96.6126C139.856 97.6646 139.856 99.1111 139.68 100.843C139.264 104.897 138.913 108.338 136.675 109.828C134.064 111.582 130.094 109.916 128.624 109.28C123.534 107.133 122.942 103.538 120.024 103.275C116.58 102.968 113.004 107.571 111.293 111.187C107.059 120.063 111.864 127.011 112.39 142.944C112.588 149.344 112.017 154.516 111.578 157.672C112.719 157.541 114.211 157.212 115.812 156.445C119.52 154.67 121.384 151.623 122.086 150.308C121.933 149.103 121.714 147.24 121.406 144.983C120.661 139.482 120.419 138.89 120.178 136.523C120.068 135.449 119.98 134.243 120.178 126.441C120.244 124.14 120.31 120.962 120.441 117.17C121.033 117.587 121.845 118.113 122.898 118.661C123.622 119.033 126.167 120.37 128.492 120.699C132.2 121.225 135.359 119.143 136.96 118.113C141.326 115.242 143.212 111.209 144.463 108.426C147.249 102.267 147.337 96.4811 147.051 92.8868C146.284 93.7196 144.858 95.0565 142.686 95.8893C141.589 96.3277 140.602 96.5249 139.812 96.6126Z" fill="#3D3D3D"/>
<path opacity="0.11" d="M146.218 97.4235C145.713 97.2481 144.2 100.207 144.024 100.558C142.598 103.385 142.642 105.204 142.115 106.957C141.084 110.464 137.75 113.992 134.35 114.869C128.624 116.338 123.82 110.004 121.253 111.998C120.046 112.94 120.112 115.088 120.573 116.359C121.889 120.02 127.856 120.283 128.624 120.305C133.823 120.48 137.64 117.258 138.847 116.206C146.569 109.543 147.139 97.7522 146.218 97.4235Z" fill="#3D3D3D"/>
<path opacity="0.11" d="M120.968 111.735C120.595 111.669 119.432 115.351 118.642 118.968C117.041 126.332 117.238 132.008 117.282 134.77C117.348 139.898 116.909 147.24 114.694 156.577C115.593 156.357 116.975 155.875 118.379 154.801C120.529 153.158 121.45 151.097 121.779 150.177C121.341 145.377 121.034 141.301 120.814 138.189C120.288 130.671 120.024 126.836 120.134 123.329C120.375 116.338 121.385 111.823 120.968 111.735Z" fill="#3D3D3D"/>
<path d="M111.096 75.8794C111.293 75.3096 112.609 75.3096 112.96 75.3096C114.496 75.3096 115.725 76.3178 116.119 77.1725C116.229 77.4136 116.251 77.6108 116.251 77.7204C116.295 78.3122 115.944 78.9039 115.637 79.1012C114.496 79.8244 110.701 76.9972 111.096 75.8794Z" fill="white" stroke="#161616" stroke-width="3" stroke-miterlimit="10"/>
<path d="M151.11 42.1277C154.598 44.2756 154.181 50.3465 153.655 57.9516C153.062 66.3457 151.044 72.2412 150.276 74.3891C148.916 78.093 147.402 81.0956 146.152 83.2434C141.633 85.1721 134.437 87.4514 125.531 87.0569C122.306 86.9035 119.432 86.4432 116.953 85.8515C113.992 87.8897 111.6 87.8678 110.569 87.7582C108.968 87.6048 106.862 86.8816 106.884 86.1802C106.884 85.6981 107.915 85.3036 108.376 85.1282C109.494 84.6899 110.482 84.7337 110.482 84.6899C110.482 84.6461 109.67 84.6899 108.814 84.6023C108.244 84.5365 107.125 84.4488 106.16 83.9448C105.809 83.7694 104.076 82.9147 103.747 81.249C103.44 79.7367 104.361 78.0272 106.05 77.0191C107.608 76.6027 110.35 76.0986 113.663 76.6903C116.12 77.1287 118.006 78.0053 119.257 78.6847C125.158 77.2382 131.059 75.7698 136.938 74.3233C137.048 73.096 137.245 71.2988 137.487 69.0852C138.254 62.0938 138.627 58.5872 139.22 55.6284C140.668 48.3521 141.611 43.5962 145.296 41.9305C146.942 41.2072 149.333 41.0319 151.11 42.1277Z" fill="white" stroke="#161616" stroke-width="3" stroke-miterlimit="10"/>
<path opacity="0.18" d="M147.666 41.6237C148.39 46.1166 149.048 52.7573 148.455 60.735C147.797 69.5236 147.424 73.9069 144.309 77.5451C139.637 83.0023 129.567 85.7419 121.736 83.5283C118.708 82.6736 114.343 80.723 108.99 81.8188C107.454 82.1257 105.107 82.8489 105.151 83.4188C105.195 83.8571 106.774 84.2954 107.893 84.4269C108.749 84.5146 109.297 84.4488 109.341 84.6242C109.473 85.0406 106.994 85.7419 107.059 86.4652C107.103 87.0788 109.056 87.561 110.657 87.6048C111.886 87.6487 114.057 87.4953 116.69 85.983C119.015 86.5309 121.67 86.9912 124.587 87.1665C133.911 87.7363 141.545 85.3036 146.305 83.2434C147.271 81.512 148.499 79.0793 149.684 76.0547C153.347 66.7621 153.764 59.0255 153.83 56.9215C153.962 53.7655 153.852 49.3383 152.821 44.1003C152.667 43.7715 152.009 42.5223 150.496 41.8648C149.223 41.3168 148.06 41.536 147.666 41.6237Z" fill="#3D3D3D"/>
<path opacity="0.21" d="M141.808 83.353C138.408 83.879 136.434 84.4269 134.898 84.7338C128.668 86.0488 123.622 85.457 121.845 85.2378C120.024 85.0406 118.533 84.7338 117.502 84.5146C116.251 85.0187 114.386 85.6543 112.061 85.9173C109.078 86.246 106.95 85.8077 106.884 86.1803C106.818 86.5309 108.639 87.4514 110.569 87.6706C113.509 87.9993 115.9 86.5748 116.975 85.8296C118.335 86.2022 120.288 86.6843 122.679 86.9693C135.381 88.5253 146.547 83.2653 146.415 82.7832C146.393 82.6298 144.858 82.8708 141.808 83.353Z" fill="#3D3D3D"/>
<path d="M105.063 83.3968C107.125 82.5202 109.363 82.3448 111.535 82.8489C111.951 82.9366 112.127 82.301 111.71 82.2133C109.341 81.6654 106.972 81.8627 104.734 82.827C104.339 83.0023 104.69 83.5722 105.063 83.3968Z" fill="#161616"/>
<path d="M103.9 81.2928C106.335 80.4162 108.88 80.1312 111.447 80.46C111.864 80.5038 111.864 79.8463 111.447 79.8025C108.836 79.4737 106.204 79.7587 103.725 80.6572C103.33 80.8107 103.506 81.4462 103.9 81.2928Z" fill="#161616"/>
<path d="M104.515 79.0573C106.928 78.356 109.385 78.093 111.886 78.2683C112.302 78.2902 112.302 77.6327 111.886 77.6108C109.341 77.4355 106.796 77.7204 104.339 78.4217C103.922 78.5313 104.098 79.1669 104.515 79.0573Z" fill="#161616"/>
<path d="M116.119 7.083C109.999 12.0362 110.24 22.1178 112.653 28.6271C114.167 32.7474 116.624 35.5747 118.204 37.1307C118.598 38.7964 118.971 40.484 119.366 42.1497C121.297 42.5661 123.842 42.8948 126.803 42.6318C133.472 42.0182 138.167 38.7745 140.251 37.0869C138.781 33.4487 137.311 29.8106 135.841 26.1505C135.644 24.8136 135.359 22.7534 135.008 20.2549C134.108 13.7018 134.152 13.3512 133.757 12.2992C133.582 11.8608 131.103 5.59267 125.289 4.47492C120.573 3.57633 116.69 6.60083 116.119 7.083Z" fill="white" stroke="#161616" stroke-width="3" stroke-miterlimit="10"/>
<path d="M111.074 23.8493C110.723 25.23 110.35 27.3778 110.613 29.9859C110.789 31.7173 111.074 34.7199 113.246 37.6129C115.593 40.747 118.774 41.9305 120.112 42.3688C120.002 42.0182 119.893 41.5798 119.827 41.0757C119.761 40.5278 119.783 40.0457 119.827 39.6731C121.275 40.4402 122.723 41.2292 124.149 41.9963C127.79 38.6649 128.997 35.6404 129.414 33.4268C129.743 31.6954 129.94 28.5175 130.73 22.7315C130.861 21.7014 131.147 19.8385 132.331 19.3783C132.88 19.1591 133.626 19.2468 134.13 19.6632C135.578 20.8686 134.108 24.3095 134.415 24.4191C134.722 24.5068 137.245 21.0439 136.39 17.0551C135.951 14.9949 134.744 13.5703 134.042 12.869C132.463 15.3456 130.708 17.8879 128.777 20.496C127.549 22.1617 126.32 23.7397 125.114 25.2519C124.653 25.493 123.973 25.7779 123.183 25.7122C122.569 25.6683 122.35 25.4492 121.889 25.3177C120.178 24.8355 119.257 26.8299 117.589 26.5669C116.207 26.3478 116.076 24.8793 114.562 24.8355C113.838 24.8136 113.531 25.1423 112.785 24.9889C111.995 24.8136 111.447 24.2876 111.074 23.8493Z" fill="#161616" stroke="#161616" stroke-width="3" stroke-miterlimit="10"/>
<path d="M118.138 17.9975C117.611 20.3864 117.282 22.7973 117.151 25.23C117.129 25.493 117.436 25.6245 117.655 25.5149C118.511 25.0766 119.366 24.6383 120.244 24.1999C120.617 24.0027 120.288 23.4328 119.915 23.6301C119.059 24.0684 118.204 24.5068 117.326 24.9451C117.502 25.0328 117.655 25.1423 117.831 25.23C117.984 22.8411 118.291 20.496 118.796 18.1728C118.862 17.7564 118.226 17.5811 118.138 17.9975Z" fill="#161616"/>
<path d="M114.694 19.3344C114.935 19.707 114.979 20.2768 114.781 20.3864C114.54 20.5179 113.86 20.0138 113.772 19.444C113.75 19.2687 113.772 18.9618 113.926 18.8742C114.145 18.7646 114.518 19.0495 114.694 19.3344Z" fill="#161616" stroke="#161616" stroke-width="3" stroke-miterlimit="10"/>
<path d="M113.553 17.077C114.321 16.6825 115.242 16.7483 115.944 17.2962C116.273 17.5592 116.734 17.0989 116.405 16.8359C115.483 16.0908 114.277 15.9593 113.224 16.5072C112.851 16.7044 113.18 17.2743 113.553 17.077Z" fill="#161616"/>
<path d="M121.209 17.4058C122.306 16.6825 123.798 16.9236 124.544 18.0194C124.785 18.3701 125.355 18.0413 125.114 17.6907C124.171 16.3318 122.284 15.9154 120.88 16.8359C120.529 17.077 120.858 17.6468 121.209 17.4058Z" fill="#161616"/>
<path d="M106.248 13.2197C115.001 13.7237 123.754 14.4689 132.463 15.4113C133.735 15.5428 133.713 13.5703 132.463 13.4388C123.754 12.4964 115.001 11.7512 106.248 11.2472C104.975 11.1814 104.975 13.1539 106.248 13.2197Z" fill="#161616"/>
<path d="M111.929 11.8827C112.061 10.5458 112.61 7.10492 115.286 4.3215C118.774 0.683336 125.202 -0.85083 130.203 2.23942C134.13 4.67217 136.214 9.36233 135.512 14.1402C127.637 13.395 119.783 12.6279 111.929 11.8827Z" fill="#474747"/>
<path opacity="0.69" d="M122.986 1.27508C121.955 2.12983 121.955 3.90508 122.328 5.81183C122.723 7.89392 123.732 10.4362 125.267 13.0224C128.668 13.4169 132.09 13.8114 135.49 14.2059C135.644 13.4827 135.775 12.4088 135.644 11.1157C135.644 11.1157 135.424 8.77058 134.174 6.64467C131.673 2.43667 125.136 -0.522083 122.986 1.27508Z" fill="#111111"/>
<path opacity="0.24" d="M133.67 25.4492C132.902 25.8656 132.134 25.756 131.871 25.7122C132.2 26.3477 132.88 27.7066 133.362 29.6133C133.801 31.4105 134.437 33.8652 133.604 36.6924C132.858 39.2128 131.278 40.8785 130.203 41.799C131.52 41.5579 133.253 41.0977 135.161 40.1553C137.377 39.0594 138.956 37.7444 139.988 36.7363C138.364 32.1557 136.763 27.5751 135.139 22.9945C135.139 23.0822 135.052 24.7259 133.67 25.4492Z" fill="#3D3D3D"/>
<path opacity="0.19" d="M125.991 14.6662C126.233 15.7182 126.452 17.2962 126.189 19.1591C125.75 22.2932 124.236 24.4629 123.425 25.4492C123.907 25.2958 124.39 25.1423 124.873 24.9889C125.838 23.8273 126.803 22.6 127.768 21.3288C129.348 19.2468 130.818 17.2085 132.134 15.2141C130.094 15.0607 128.032 14.8634 125.991 14.6662Z" fill="#3D3D3D"/>
<path d="M123.008 19.5317C123.249 19.9042 123.293 20.4741 123.096 20.5837C122.854 20.7152 122.174 20.2111 122.087 19.6412C122.065 19.4659 122.087 19.1591 122.24 19.0714C122.459 18.9618 122.81 19.2467 123.008 19.5317Z" fill="#161616" stroke="#161616" stroke-width="3" stroke-miterlimit="10"/>
<path d="M113.399 25.0108C115.592 25.0108 117.37 23.2348 117.37 21.0439C117.37 18.853 115.592 17.077 113.399 17.077C111.206 17.077 109.428 18.853 109.428 21.0439C109.428 23.2348 111.206 25.0108 113.399 25.0108Z" stroke="#161616" stroke-width="2" stroke-miterlimit="10"/>
<path d="M122.635 25.0108C124.828 25.0108 126.606 23.2348 126.606 21.0439C126.606 18.853 124.828 17.077 122.635 17.077C120.442 17.077 118.664 18.853 118.664 21.0439C118.664 23.2348 120.442 25.0108 122.635 25.0108Z" stroke="#161616" stroke-width="2" stroke-miterlimit="10"/>
<path d="M117.831 21.1754C117.918 21.0658 118.094 21.022 118.204 21.1097C118.335 21.2192 118.533 21.2412 118.664 21.1097C118.774 21.0001 118.796 20.759 118.664 20.6494C118.291 20.3207 117.699 20.3207 117.37 20.7152C117.26 20.8467 117.238 21.0439 117.37 21.1754C117.48 21.3069 117.721 21.3069 117.831 21.1754Z" fill="#161616"/>
<path d="M109.758 21.3069C110.174 21.0878 110.591 20.8467 110.986 20.5837C111.337 20.3645 111.008 19.7947 110.657 20.0138C110.262 20.2768 109.845 20.5179 109.429 20.7371C109.034 20.9343 109.385 21.5042 109.758 21.3069Z" fill="#161616"/>
<path d="M126.847 21.2412C128.668 20.7809 130.51 20.3426 132.331 19.8823C132.748 19.7727 132.573 19.1372 132.156 19.2467C130.335 19.707 128.492 20.1453 126.671 20.6056C126.255 20.7152 126.43 21.3507 126.847 21.2412Z" fill="#161616"/>
</svg>
